<svg width="129" height="33" viewBox="0 0 381 98" fill="none" xmlns="http://www.w3.org/2000/svg">
<path d="M37.8639 60.7852C23.4894 60.7852 11.7961 49.773 11.7961 36.2356C11.7961 22.6984 23.4894 11.6862 37.8639 11.6862C52.2385 11.6862 63.9317 22.6984 63.9317 36.2356C63.9317 49.773 52.2385 60.7852 37.8639 60.7852ZM73.8637 24.9346C70.3688 14.2919 61.1648 5.62397 49.8639 2.33268C45.9027 1.1804 41.8251 0.577181 37.8639 0.577181C29.7668 0.577181 21.9613 2.93607 15.437 7.5445C5.76681 14.2371 0 24.9346 0 36.2356C0 44.0255 2.6214 51.4318 7.57279 57.6309L37.8639 94.2036L68.1551 57.6309C75.5529 48.3047 77.6501 36.4005 73.8637 24.9346Z" fill="white"/>
<path d="M22.3008 32.8572H22.6183V31.5874H22.3008V32.8572Z" fill="white"/>
<path d="M26.5856 31.5874H25.4746V32.8572H26.5856V31.5874Z" fill="white"/>
<path d="M23.8877 36.8604V46.9834H25.4748V35.0903C24.5825 35.1869 23.8877 35.9423 23.8877 36.8604Z" fill="white"/>
<path d="M52.2991 46.9834V36.8098C52.2991 35.8538 51.5243 35.0792 50.5685 35.0792H50.5532V46.9834H52.2991Z" fill="white"/>
<path d="M26.8952 23.1748H49.2781C50.283 23.1748 51.0977 24.0517 51.0977 25.1331V25.3176H51.1087V19.9141C51.1087 18.866 50.3194 18.0162 49.3453 18.0162H26.8498C25.8713 18.0162 25.0781 18.87 25.0781 19.923V24.9299C25.1767 23.9432 25.9522 23.1748 26.8952 23.1748Z" fill="white"/>
<path d="M49.4414 31.5874H50.5524V27.6415C50.5524 26.0514 49.2635 24.7623 47.6732 24.7623H28.3671C26.7693 24.7623 25.4741 26.0575 25.4741 27.6553V31.5874H26.5851V32.8571H25.4741V35.0903C25.5378 35.0834 25.6024 35.0794 25.6681 35.0794H28.1725V28.4113C28.1725 27.7985 28.6691 27.3019 29.2819 27.3019H47.2284C47.837 27.3019 48.3304 27.7952 48.3304 28.4037V35.0794H50.5524V32.8571H49.4414V31.5874Z" fill="white"/>
<path d="M49.2828 43.8089C49.2828 44.5979 48.1813 45.2375 46.8226 45.2375C45.4638 45.2375 44.3624 44.5979 44.3624 43.8089C44.3624 43.02 45.4638 42.3804 46.8226 42.3804C48.1813 42.3804 49.2828 43.02 49.2828 43.8089ZM43.5687 39.6822H32.4581V37.9363H43.5687V39.6822ZM43.5687 42.4124H32.4581V40.6665H43.5687V42.4124ZM43.5527 45.2375H32.4421V43.4916H43.5527V45.2375ZM29.0455 45.2375C27.6868 45.2375 26.5853 44.5979 26.5853 43.8089C26.5853 43.02 27.6868 42.3804 29.0455 42.3804C30.4043 42.3804 31.5057 43.02 31.5057 43.8089C31.5057 44.5979 30.4043 45.2375 29.0455 45.2375ZM28.1725 35.0792H25.6682C25.6026 35.0792 25.538 35.0832 25.4741 35.0901V46.9834H50.5526V35.0792H48.3304H28.1725Z" fill="white"/>
<path d="M23.8877 49.5984C23.8877 50.5211 24.6357 51.2693 25.5586 51.2693H50.6402C51.5566 51.2693 52.2992 50.5265 52.2992 49.6102V48.0948H23.8877V49.5984Z" fill="white"/>
<path d="M26.5859 54.8076C26.5859 55.8338 27.4179 56.6658 28.4441 56.6658H29.9973C31.0062 56.6658 31.8239 55.8481 31.8239 54.8393V51.904H26.5859V54.8076Z" fill="white"/>
<path d="M44.2041 54.8076C44.2041 55.8338 45.0361 56.6658 46.0623 56.6658H47.6155C48.6243 56.6658 49.442 55.8481 49.442 54.8393V51.904H44.2041V54.8076Z" fill="white"/>
<path d="M22.6179 31.5874V28.7304H21.0812C20.0891 28.7304 19.2847 29.5347 19.2847 30.527V31.2359C19.2847 32.1314 20.0104 32.8572 20.9059 32.8572H22.3004V31.5874H22.6179Z" fill="white"/>
<path d="M22.6177 32.8572H25.4746V31.5874H22.6177V32.8572Z" fill="white"/>
<path d="M54.9468 28.7304H53.4102V31.5874H53.7277V32.8572H55.1221C56.0175 32.8572 56.7434 32.1314 56.7434 31.2361V30.527C56.7434 29.5347 55.9391 28.7304 54.9468 28.7304Z" fill="white"/>
<path d="M50.5532 32.8572H53.4103V31.5874H50.5532V32.8572Z" fill="white"/>
<path d="M49.4424 32.8572H50.5534V31.5874H49.4424V32.8572Z" fill="white"/>
<path d="M53.4102 32.8572H53.7275V31.5874H53.4102V32.8572Z" fill="white"/>
<path d="M94.002 72.0151V30.5093H101.278L116.446 58.2272V30.5093H123.414V72.0151H115.892L100.97 44.9486V72.0151H94.002Z" fill="white"/>
<path d="M151.004 54.4046C150.942 52.0546 150.397 50.2877 149.37 49.1031C148.341 47.9189 147.119 47.3265 145.701 47.3265C144.2 47.3265 142.936 47.9427 141.908 49.1742C140.86 50.4254 140.346 52.1689 140.367 54.4046H151.004ZM150.634 62.4736L157.694 63.8042C156.747 66.8242 155.276 69.0659 153.279 70.5284C151.283 71.9914 148.855 72.7227 145.995 72.7227C142.022 72.7227 138.956 71.5031 136.796 69.0637C134.243 66.2276 132.968 62.2567 132.968 57.1513C132.968 52.1214 134.252 48.094 136.822 45.0685C139 42.5161 141.816 41.2394 145.269 41.2394C149.112 41.2394 152.123 42.544 154.302 45.1527C156.81 48.1397 158.064 52.5445 158.064 58.3671L158.033 59.2741H140.244C140.285 61.6618 140.867 63.5091 141.99 64.8164C143.114 66.1236 144.469 66.777 146.057 66.777C148.345 66.777 149.87 65.3429 150.634 62.4736" fill="white"/>
<path d="M179.888 41.9472V48.2893H175.048V60.4262C175.048 63.0539 175.119 64.5758 175.264 64.9915C175.551 65.7479 176.137 66.1258 177.021 66.1258C177.678 66.1258 178.624 65.871 179.857 65.3614L180.474 71.5335C178.829 72.3263 176.969 72.7227 174.893 72.7227C173.085 72.7227 171.636 72.3259 170.546 71.5321C169.457 70.7385 168.728 69.5954 168.357 68.1025C168.07 67.0066 167.926 64.7767 167.926 61.4128V48.2893H164.658V41.9472H167.926V35.9733L175.048 31.3302V41.9472H179.888Z" fill="white"/>
<path d="M200.91 41.9472V48.2893H196.07V60.4262C196.07 63.0539 196.141 64.5758 196.285 64.9915C196.573 65.7479 197.159 66.1258 198.043 66.1258C198.7 66.1258 199.646 65.871 200.879 65.3614L201.496 71.5335C199.851 72.3263 197.991 72.7227 195.915 72.7227C194.107 72.7227 192.658 72.3259 191.568 71.5321C190.479 70.7385 189.749 69.5954 189.379 68.1025C189.091 67.0066 188.948 64.7767 188.948 61.4128V48.2893H185.68V41.9472H188.948V35.9733L196.07 31.3302V41.9472H200.91Z" fill="#AE0508"/>
<path d="M216.476 72.0146H209.354V41.947H215.952V46.2223C217.082 44.2218 218.094 42.8911 218.988 42.2302C219.883 41.5698 220.915 41.2392 222.087 41.2392C223.71 41.2392 225.262 41.7396 226.742 42.7398L224.523 49.6763C223.351 48.8083 222.241 48.3739 221.193 48.3739C220.206 48.3739 219.338 48.7098 218.588 49.3803C217.837 50.0509 217.298 51.2654 216.969 53.023C216.64 54.7804 216.476 58.012 216.476 62.7172V72.0146Z" fill="white"/>
<path d="M248.381 57.5755C247.477 57.9161 246.069 58.3138 244.158 58.7682C241.958 59.298 240.52 59.8851 239.841 60.5287C239.163 61.1724 238.824 62.0054 238.824 63.0277C238.824 64.1824 239.199 65.1524 239.949 65.9381C240.699 66.7237 241.64 67.1167 242.77 67.1167C243.777 67.1167 244.774 66.8 245.761 66.1655C246.747 65.5311 247.43 64.7786 247.811 63.9082C248.191 63.0375 248.381 61.4564 248.381 59.1658V57.5755ZM238.886 51.0918L232.442 49.7894C233.223 46.7507 234.513 44.566 236.311 43.2354C238.109 41.9046 240.694 41.2393 244.065 41.2393C247.066 41.2393 249.357 41.6269 250.94 42.4013C252.523 43.1759 253.654 44.2293 254.332 45.5609C255.01 46.8928 255.349 49.3157 255.349 52.8295L255.288 62.1244C255.288 64.7319 255.4 66.6734 255.627 67.9482C255.853 69.2236 256.274 70.5792 256.891 72.0146H249.861L248.936 68.7305C247.723 70.0517 246.424 71.0476 245.036 71.7173C243.649 72.3872 242.174 72.7224 240.612 72.7224C238.002 72.7224 235.864 71.9147 234.199 70.2987C232.535 68.6827 231.702 66.5326 231.702 63.8483C231.702 62.1474 232.041 60.6636 232.719 59.3971C233.398 58.1311 234.354 57.1197 235.587 56.3637C236.82 55.6078 238.793 54.9367 241.506 54.3505C244.794 53.6515 247.087 52.9995 248.381 52.3943C248.381 50.7238 248.253 49.6281 247.996 49.1061C247.739 48.5841 247.266 48.1573 246.578 47.825C245.889 47.4928 244.918 47.3264 243.664 47.3264C242.39 47.3264 241.388 47.5909 240.658 48.119C239.929 48.6478 239.338 49.6388 238.886 51.0918" fill="white"/>
<path d="M289.598 50.809L282.6 52.2246C282.083 49.0725 280.46 47.4965 277.732 47.4965C275.974 47.4965 274.558 48.1781 273.483 49.5412C272.408 50.9046 271.871 53.2045 271.871 56.4418C271.871 60.0202 272.406 62.5476 273.478 64.0242C274.55 65.501 275.983 66.2392 277.776 66.2392C279.115 66.2392 280.218 65.8193 281.084 64.9793C281.95 64.1396 282.568 62.6533 282.939 60.5201L289.937 61.8508C288.498 69.0987 284.357 72.7227 277.513 72.7227C273.135 72.7227 269.887 71.1912 267.77 68.1281C265.653 65.0651 264.595 61.3774 264.595 57.0661C264.595 51.9042 265.793 47.976 268.191 45.2813C270.588 42.587 273.732 41.2394 277.621 41.2394C280.77 41.2394 283.337 42.0038 285.323 43.5326C287.309 45.0616 288.734 47.4871 289.598 50.809Z" fill="white"/>
<path d="M298.506 72.0146V30.5088H305.628V52.5018L313.934 41.947H322.692L313.504 52.9524L323.34 72.0146H315.699L308.888 58.4823L305.628 62.3884V72.0146H298.506Z" fill="white"/>
<path d="M347.306 54.4046C347.244 52.0546 346.699 50.2877 345.672 49.1031C344.644 47.9189 343.421 47.3265 342.003 47.3265C340.502 47.3265 339.238 47.9427 338.211 49.1742C337.162 50.4254 336.648 52.1689 336.669 54.4046H347.306ZM346.936 62.4736L353.996 63.8042C353.049 66.8242 351.578 69.0659 349.581 70.5284C347.585 71.9914 345.157 72.7227 342.297 72.7227C338.324 72.7227 335.258 71.5031 333.098 69.0637C330.545 66.2276 329.27 62.2567 329.27 57.1513C329.27 52.1214 330.554 48.094 333.124 45.0685C335.302 42.5161 338.118 41.2394 341.571 41.2394C345.414 41.2394 348.426 42.544 350.605 45.1527C353.112 48.1397 354.366 52.5445 354.366 58.3671L354.335 59.2741H336.546C336.587 61.6618 337.169 63.5091 338.293 64.8164C339.416 66.1236 340.772 66.777 342.359 66.777C344.647 66.777 346.173 65.3429 346.936 62.4736" fill="white"/>
<path d="M370.734 72.0146H363.612V41.947H370.21V46.2223C371.34 44.2218 372.352 42.8911 373.246 42.2302C374.14 41.5698 375.173 41.2392 376.345 41.2392C377.968 41.2392 379.52 41.7396 381 42.7398L378.78 49.6763C377.609 48.8083 376.499 48.3739 375.451 48.3739C374.464 48.3739 373.596 48.7098 372.846 49.3803C372.095 50.0509 371.555 51.2654 371.227 53.023C370.898 54.7804 370.734 58.012 370.734 62.7172V72.0146Z" fill="white"/>
<path d="M94.001 89.1149L96.5229 88.8414C96.8066 90.6721 97.7363 91.5874 99.3111 91.5874C100.091 91.5874 100.705 91.4001 101.152 91.0258C101.599 90.6513 101.823 90.1875 101.823 89.6337C101.823 89.3082 101.744 89.0315 101.588 88.8035C101.432 88.5756 101.195 88.3886 100.875 88.2419C100.556 88.0954 99.7828 87.8498 98.5555 87.5049C97.4558 87.1994 96.6508 86.8676 96.1398 86.5096C95.6292 86.1517 95.223 85.6813 94.9216 85.0987C94.6199 84.516 94.4693 83.8896 94.4693 83.219C94.4693 82.438 94.6625 81.7348 95.0492 81.1098C95.4358 80.4849 95.9697 80.0131 96.6508 79.694C97.3319 79.3751 98.1726 79.2157 99.1727 79.2157C100.677 79.2157 101.851 79.5903 102.695 80.3394C103.539 81.0887 103.986 82.1604 104.036 83.5546L101.45 83.6815C101.337 82.9129 101.092 82.3754 100.716 82.0691C100.34 81.763 99.8042 81.6099 99.109 81.6099C98.4136 81.6099 97.878 81.7429 97.502 82.0091C97.1259 82.2757 96.938 82.6069 96.938 83.003C96.938 83.3926 97.1087 83.7206 97.45 83.987C97.7912 84.2532 98.5756 84.5461 99.8027 84.8654C101.101 85.2108 102.039 85.5743 102.616 85.9554C103.194 86.3364 103.635 86.8282 103.94 87.4306C104.245 88.0332 104.398 88.7642 104.398 89.624C104.398 90.8681 103.981 91.9136 103.147 92.7603C102.314 93.6073 101.01 94.0305 99.2367 94.0305C96.1009 94.0305 94.3556 92.3921 94.001 89.1149Z" fill="white"/>
<path d="M109.802 88.597C109.802 89.6492 110.026 90.4448 110.474 90.984C110.922 91.5232 111.463 91.7926 112.096 91.7926C112.714 91.7926 113.244 91.5215 113.685 90.9791C114.126 90.4367 114.346 89.6361 114.346 88.5774C114.346 87.545 114.122 86.7576 113.674 86.2151C113.226 85.6728 112.69 85.4014 112.064 85.4014C111.445 85.4014 110.914 85.6728 110.469 86.2151C110.025 86.7576 109.802 87.5516 109.802 88.597ZM107.291 88.4501C107.291 87.432 107.511 86.5052 107.951 85.6698C108.391 84.8345 108.965 84.2081 109.675 83.7903C110.384 83.3725 111.182 83.1636 112.069 83.1636C113.559 83.1636 114.729 83.7004 115.581 84.7742C116.432 85.8478 116.858 87.1025 116.858 88.5382C116.858 89.6085 116.636 90.5747 116.193 91.4361C115.749 92.2976 115.167 92.9455 114.447 93.3795C113.727 93.8133 112.938 94.0305 112.08 94.0305C110.703 94.0305 109.561 93.5474 108.653 92.5815C107.745 91.6156 107.291 90.2385 107.291 88.4501" fill="white"/>
<path d="M120.091 79.4598H122.549V93.7861H120.091V79.4598Z" fill="white"/>
<path d="M132.445 93.7863V92.2338C132.105 92.7968 131.659 93.2371 131.106 93.5546C130.554 93.8718 129.977 94.0305 129.375 94.0305C128.766 94.0305 128.22 93.8838 127.739 93.5906C127.257 93.2971 126.898 92.8798 126.661 92.3384C126.423 91.7973 126.305 91.0115 126.305 89.9811V83.4079H128.763V88.177C128.763 89.5387 128.8 90.4035 128.874 90.7715C128.949 91.1397 129.113 91.4246 129.368 91.6265C129.622 91.8284 129.93 91.9294 130.291 91.9294C130.701 91.9294 131.079 91.7977 131.426 91.5337C131.772 91.2699 132 90.9311 132.11 90.5174C132.22 90.1038 132.275 89.1933 132.275 87.786V83.4079H134.733V93.7863H132.445Z" fill="white"/>
<path d="M139.968 97.7342V96.5811C140.564 96.6528 141.113 96.6887 141.617 96.6887C142.1 96.6887 142.461 96.6022 142.703 96.4297C142.944 96.257 143.064 96.0372 143.064 95.77C143.064 95.5288 142.967 95.3318 142.772 95.1788C142.577 95.0256 142.302 94.9491 141.947 94.9491C141.578 94.9491 141.198 95.0142 140.808 95.1446L141.032 94.1674C141.486 93.9913 141.982 93.9034 142.522 93.9034C143.188 93.9034 143.722 94.0749 144.123 94.4178C144.524 94.7608 144.724 95.2065 144.724 95.755C144.724 96.3821 144.458 96.8947 143.926 97.2932C143.394 97.6914 142.642 97.8906 141.67 97.8906C140.918 97.8906 140.351 97.8383 139.968 97.7342ZM146.683 86.4667L144.267 86.9554C144.089 85.8675 143.528 85.3233 142.586 85.3233C141.98 85.3233 141.491 85.5587 141.12 86.0292C140.749 86.4997 140.564 87.2935 140.564 88.4109C140.564 89.6462 140.749 90.5185 141.119 91.0281C141.488 91.5379 141.983 91.7926 142.602 91.7926C143.064 91.7926 143.445 91.6477 143.744 91.3577C144.042 91.068 144.256 90.555 144.384 89.8187L146.8 90.278C146.303 92.7797 144.873 94.0306 142.511 94.0306C141 94.0306 139.879 93.502 139.148 92.4447C138.418 91.3874 138.052 90.1146 138.052 88.6265C138.052 86.8449 138.466 85.4888 139.293 84.5589C140.121 83.6289 141.206 83.1637 142.549 83.1637C143.635 83.1637 144.521 83.4275 145.207 83.9553C145.892 84.4829 146.384 85.3202 146.683 86.4667Z" fill="white"/>
<path d="M151.779 88.597C151.779 89.6492 152.003 90.4448 152.451 90.984C152.899 91.5232 153.439 91.7926 154.072 91.7926C154.691 91.7926 155.221 91.5215 155.661 90.9791C156.102 90.4367 156.323 89.6361 156.323 88.5774C156.323 87.545 156.099 86.7576 155.651 86.2151C155.203 85.6728 154.666 85.4014 154.04 85.4014C153.422 85.4014 152.89 85.6728 152.445 86.2151C152.001 86.7576 151.779 87.5516 151.779 88.597ZM152.162 82.0006H151.045L151.034 81.6795C151.034 80.9656 151.185 80.4287 151.487 80.0685C151.79 79.7085 152.172 79.5281 152.634 79.5281C152.833 79.5281 153.021 79.5545 153.199 79.6063C153.377 79.6587 153.665 79.7824 154.063 79.9779C154.589 80.2385 154.98 80.3687 155.236 80.3687C155.641 80.3687 155.879 80.0853 155.95 79.5186H157.068C157.061 80.4047 156.914 81.035 156.627 81.4094C156.34 81.7842 155.97 81.9714 155.518 81.9714C155.326 81.9714 155.139 81.9486 154.955 81.9029C154.82 81.8704 154.509 81.7501 154.02 81.5413C153.433 81.2872 153.015 81.1603 152.767 81.1603C152.59 81.1603 152.447 81.2231 152.337 81.3486C152.228 81.4742 152.169 81.6916 152.162 82.0006ZM149.268 88.4501C149.268 87.432 149.487 86.5052 149.927 85.6698C150.367 84.8345 150.942 84.2081 151.651 83.7903C152.361 83.3725 153.159 83.1636 154.046 83.1636C155.536 83.1636 156.706 83.7004 157.557 84.7742C158.409 85.8478 158.834 87.1025 158.834 88.5382C158.834 89.6085 158.612 90.5747 158.169 91.4361C157.726 92.2976 157.144 92.9455 156.424 93.3795C155.704 93.8133 154.914 94.0305 154.056 94.0305C152.68 94.0305 151.538 93.5474 150.63 92.5815C149.722 91.6156 149.268 90.2385 149.268 88.4501" fill="white"/>
<path d="M167.58 87.7078C167.559 86.8969 167.371 86.287 167.016 85.8778C166.661 85.4692 166.239 85.2647 165.749 85.2647C165.232 85.2647 164.795 85.4774 164.44 85.9025C164.079 86.3344 163.901 86.9361 163.908 87.7078H167.58ZM167.452 90.4929L169.889 90.9522C169.562 91.9947 169.054 92.7683 168.365 93.2731C167.676 93.7781 166.838 94.0305 165.851 94.0305C164.48 94.0305 163.421 93.6097 162.676 92.7677C161.795 91.7887 161.354 90.4181 161.354 88.6558C161.354 86.9196 161.798 85.5297 162.685 84.4854C163.437 83.6042 164.409 83.1638 165.6 83.1638C166.927 83.1638 167.966 83.6139 168.718 84.5144C169.584 85.5454 170.017 87.0658 170.017 89.0755L170.006 89.3887H163.866C163.88 90.2126 164.081 90.8504 164.469 91.3017C164.857 91.7528 165.324 91.9784 165.873 91.9784C166.662 91.9784 167.189 91.4834 167.452 90.4929" fill="white"/>
<path d="M172.453 90.8349L174.911 90.4146C175.124 91.5028 175.784 92.0467 176.89 92.0467C177.479 92.0467 177.919 91.9425 178.21 91.7338C178.501 91.5254 178.646 91.2548 178.646 90.9223C178.646 90.6942 178.582 90.5149 178.455 90.3845C178.32 90.2541 178.053 90.1401 177.654 90.0428C175.641 89.5511 174.361 89.083 173.815 88.639C173.134 88.0838 172.793 87.3233 172.793 86.3567C172.793 85.3903 173.127 84.6164 173.794 84.0353C174.46 83.4541 175.429 83.1636 176.699 83.1636C177.912 83.1636 178.834 83.3803 179.465 83.8135C180.097 84.2467 180.54 84.9457 180.796 85.9096L178.486 86.3885C178.281 85.5547 177.699 85.1376 176.741 85.1376C176.138 85.1376 175.709 85.2176 175.454 85.3778C175.198 85.5377 175.07 85.7449 175.07 85.9994C175.07 86.2278 175.187 86.4174 175.421 86.5676C175.655 86.7242 176.382 86.9609 177.602 87.2774C178.97 87.6335 179.9 88.0626 180.39 88.5645C180.873 89.0666 181.115 89.7347 181.115 90.5691C181.115 91.573 180.741 92.4008 179.992 93.0526C179.244 93.7047 178.21 94.0305 176.89 94.0305C175.691 94.0305 174.712 93.7586 173.953 93.2145C173.194 92.6705 172.694 91.8774 172.453 90.8349Z" fill="white"/>
<path d="M196.351 87.7078C196.33 86.8969 196.142 86.287 195.787 85.8778C195.433 85.4692 195.01 85.2647 194.521 85.2647C194.003 85.2647 193.567 85.4774 193.212 85.9025C192.85 86.3344 192.673 86.9361 192.68 87.7078H196.351ZM196.224 90.4929L198.66 90.9522C198.334 91.9947 197.826 92.7683 197.137 93.2731C196.448 93.7781 195.61 94.0305 194.622 94.0305C193.251 94.0305 192.193 93.6097 191.447 92.7677C190.566 91.7887 190.126 90.4181 190.126 88.6558C190.126 86.9196 190.569 85.5297 191.456 84.4854C192.208 83.6042 193.18 83.1638 194.372 83.1638C195.698 83.1638 196.738 83.6139 197.49 84.5144C198.355 85.5454 198.788 87.0658 198.788 89.0755L198.777 89.3887H192.637C192.651 90.2126 192.852 90.8504 193.24 91.3017C193.628 91.7528 194.096 91.9784 194.644 91.9784C195.434 91.9784 195.96 91.4834 196.224 90.4929" fill="white"/>
<path d="M201.894 83.4078H204.15V84.8249C204.554 84.2711 204.998 83.8558 205.48 83.5789C205.963 83.302 206.484 83.1635 207.045 83.1635C207.641 83.1635 208.157 83.3003 208.593 83.574C209.029 83.8477 209.386 84.2614 209.662 84.815C210.074 84.2614 210.515 83.8477 210.987 83.574C211.459 83.3003 211.961 83.1635 212.493 83.1635C213.124 83.1635 213.669 83.3022 214.127 83.5793C214.584 83.8565 214.932 84.2526 215.17 84.7678C215.407 85.2828 215.526 86.0751 215.526 87.1444V93.7861H213.068V87.8474C213.068 86.8106 212.968 86.1208 212.77 85.7781C212.571 85.4359 212.238 85.2646 211.769 85.2646C211.223 85.2646 210.783 85.5043 210.45 85.9838C210.116 86.4633 209.95 87.4007 209.95 88.7964V93.7861H207.492V88.092C207.492 86.9637 207.424 86.2365 207.289 85.9104C207.112 85.4798 206.754 85.2646 206.215 85.2646C205.853 85.2646 205.519 85.3756 205.214 85.5973C204.909 85.8191 204.689 86.1436 204.554 86.5707C204.42 86.9979 204.352 87.7203 204.352 88.7376V93.7861H201.894V83.4078Z" fill="white"/>
<path d="M228.452 93.7861V81.8836H224.653V79.4598H234.816V81.8836H231.028V93.7861H228.452Z" fill="white"/>
<path d="M241.987 87.7078C241.966 86.8969 241.778 86.287 241.423 85.8778C241.068 85.4692 240.646 85.2647 240.157 85.2647C239.639 85.2647 239.202 85.4774 238.848 85.9025C238.486 86.3344 238.309 86.9361 238.316 87.7078H241.987ZM241.859 90.4929L244.296 90.9522C243.969 91.9947 243.462 92.7683 242.772 93.2731C242.083 93.7781 241.245 94.0305 240.258 94.0305C238.887 94.0305 237.829 93.6097 237.083 92.7677C236.202 91.7887 235.762 90.4181 235.762 88.6558C235.762 86.9196 236.205 85.5297 237.092 84.4854C237.844 83.6042 238.816 83.1638 240.008 83.1638C241.334 83.1638 242.374 83.6139 243.126 84.5144C243.991 85.5454 244.424 87.0658 244.424 89.0755L244.413 89.3887H238.273C238.287 90.2126 238.488 90.8504 238.876 91.3017C239.264 91.7528 239.732 91.9784 240.28 91.9784C241.07 91.9784 241.596 91.4834 241.859 90.4929" fill="white"/>
<path d="M255.809 86.4666L253.394 86.9553C253.215 85.8675 252.655 85.3232 251.713 85.3232C251.107 85.3232 250.618 85.5586 250.247 86.0291C249.876 86.4996 249.69 87.2934 249.69 88.4109C249.69 89.6461 249.875 90.5184 250.245 91.028C250.615 91.5378 251.11 91.7926 251.729 91.7926C252.191 91.7926 252.572 91.6476 252.87 91.3576C253.169 91.068 253.383 90.555 253.511 89.8186L255.926 90.2779C255.43 92.7796 254 94.0305 251.638 94.0305C250.127 94.0305 249.006 93.5019 248.275 92.4446C247.544 91.3874 247.179 90.1146 247.179 88.6264C247.179 86.8448 247.593 85.4888 248.42 84.5588C249.248 83.6289 250.333 83.1636 251.675 83.1636C252.762 83.1636 253.648 83.4274 254.334 83.9552C255.019 84.4828 255.511 85.3201 255.809 86.4666Z" fill="white"/>
<path d="M267.397 93.7861H264.938V88.4835C264.938 87.4204 264.892 86.7126 264.8 86.3603C264.708 86.0083 264.536 85.7375 264.284 85.5483C264.032 85.3593 263.746 85.2646 263.427 85.2646C263.016 85.2646 262.643 85.387 262.31 85.6314C261.976 85.8762 261.742 86.2138 261.608 86.6441C261.473 87.0747 261.405 87.8867 261.405 89.0803V93.7861H258.947V83.4078H261.224V84.9226C261.629 84.3362 262.085 83.8964 262.592 83.6034C263.099 83.3102 263.661 83.1637 264.279 83.1637C264.995 83.1637 265.6 83.3348 266.093 83.677C266.586 84.0195 266.927 84.4598 267.115 84.9976C267.302 85.5357 267.397 86.3132 267.397 87.3305V93.7861Z" fill="white"/>
<path d="M273.131 88.597C273.131 89.6492 273.355 90.4448 273.803 90.984C274.251 91.5232 274.791 91.7926 275.424 91.7926C276.043 91.7926 276.573 91.5215 277.014 90.9791C277.454 90.4367 277.675 89.6361 277.675 88.5774C277.675 87.545 277.451 86.7576 277.003 86.2151C276.555 85.6728 276.018 85.4014 275.392 85.4014C274.774 85.4014 274.242 85.6728 273.798 86.2151C273.353 86.7576 273.131 87.5516 273.131 88.597ZM270.62 88.4501C270.62 87.432 270.839 86.5052 271.279 85.6698C271.719 84.8345 272.294 84.2081 273.003 83.7903C273.713 83.3725 274.511 83.1636 275.398 83.1636C276.888 83.1636 278.058 83.7004 278.909 84.7742C279.761 85.8478 280.186 87.1025 280.186 88.5382C280.186 89.6085 279.965 90.5747 279.521 91.4361C279.078 92.2976 278.496 92.9455 277.776 93.3795C277.056 93.8133 276.266 94.0305 275.408 94.0305C274.032 94.0305 272.89 93.5474 271.982 92.5815C271.074 91.6156 270.62 90.2385 270.62 88.4501" fill="white"/>
<path d="M283.42 79.4598H285.878V93.7861H283.42V79.4598Z" fill="white"/>
<path d="M291.634 88.597C291.634 89.6492 291.858 90.4448 292.306 90.984C292.754 91.5232 293.295 91.7926 293.928 91.7926C294.546 91.7926 295.076 91.5215 295.517 90.9791C295.958 90.4367 296.178 89.6361 296.178 88.5774C296.178 87.545 295.954 86.7576 295.506 86.2151C295.058 85.6728 294.521 85.4014 293.896 85.4014C293.277 85.4014 292.745 85.6728 292.301 86.2151C291.857 86.7576 291.634 87.5516 291.634 88.597ZM289.123 88.4501C289.123 87.432 289.343 86.5052 289.783 85.6698C290.222 84.8345 290.797 84.2081 291.507 83.7903C292.216 83.3725 293.014 83.1636 293.901 83.1636C295.391 83.1636 296.561 83.7004 297.413 84.7742C298.264 85.8478 298.69 87.1025 298.69 88.5382C298.69 89.6085 298.468 90.5747 298.025 91.4361C297.581 92.2976 296.999 92.9455 296.279 93.3795C295.559 93.8133 294.77 94.0305 293.912 94.0305C292.535 94.0305 291.393 93.5474 290.485 92.5815C289.577 91.6156 289.123 90.2385 289.123 88.4501" fill="white"/>
<path d="M303.881 88.3771C303.881 89.4862 304.074 90.2953 304.461 90.8042C304.848 91.3133 305.314 91.5678 305.86 91.5678C306.449 91.5678 306.953 91.3099 307.371 90.7945C307.79 90.2788 307.999 89.4959 307.999 88.4454C307.999 87.3623 307.799 86.5614 307.398 86.0428C306.997 85.524 306.502 85.2644 305.913 85.2644C305.332 85.2644 304.848 85.5191 304.461 86.028C304.074 86.5371 303.881 87.32 303.881 88.3771ZM301.689 94.4701L304.498 94.8512C304.541 95.2291 304.67 95.4978 304.887 95.6574C305.103 95.8171 305.445 95.8968 305.913 95.8968C306.453 95.8968 306.889 95.8154 307.222 95.6525C307.457 95.5352 307.638 95.3399 307.765 95.0663C307.893 94.7926 307.957 94.3104 307.957 93.6199V92.1052C307.588 92.6655 307.173 93.0857 306.712 93.366C306.25 93.6459 305.74 93.786 305.179 93.786C304.151 93.786 303.285 93.359 302.583 92.5045C301.774 91.5265 301.37 90.2027 301.37 88.5335C301.37 86.7596 301.751 85.4213 302.514 84.5182C303.276 83.6151 304.2 83.1635 305.286 83.1635C305.86 83.1635 306.383 83.3051 306.855 83.5886C307.327 83.872 307.747 84.2971 308.116 84.8638V83.4078H310.415V92.7209C310.415 94.2126 310.266 95.2942 309.968 95.9653C309.67 96.6362 309.211 97.1427 308.59 97.4849C307.969 97.8269 307.109 97.998 306.009 97.998C304.995 97.998 304.182 97.8741 303.573 97.6265C302.962 97.3788 302.496 97.0091 302.173 96.5175C301.85 96.0254 301.689 95.457 301.689 94.8121V94.4701Z" fill="white"/>
<path d="M314.149 83.4078H316.608V93.7861H314.149V83.4078ZM314.149 79.4597H316.608V82.0005H314.149V79.4597Z" fill="white"/>
<path d="M325.535 88.8023C325.222 88.9198 324.736 89.0571 324.077 89.2138C323.317 89.3967 322.821 89.5993 322.587 89.8217C322.353 90.0438 322.236 90.3313 322.236 90.6842C322.236 91.0828 322.365 91.4176 322.624 91.6887C322.883 91.9598 323.208 92.0955 323.598 92.0955C323.945 92.0955 324.289 91.9862 324.63 91.7673C324.971 91.5482 325.206 91.2886 325.338 90.9879C325.469 90.6876 325.535 90.1419 325.535 89.3512V88.8023ZM322.257 86.5644L320.033 86.1148C320.302 85.066 320.747 84.3118 321.368 83.8525C321.989 83.3933 322.881 83.1636 324.045 83.1636C325.08 83.1636 325.871 83.2972 326.418 83.5648C326.964 83.8322 327.354 84.1956 327.588 84.6554C327.822 85.1151 327.939 85.9514 327.939 87.1641L327.918 90.3724C327.918 91.2723 327.957 91.9427 328.035 92.3826C328.113 92.8228 328.259 93.2906 328.472 93.7861H326.045L325.726 92.6525C325.307 93.1087 324.859 93.4523 324.38 93.6836C323.901 93.9148 323.392 94.0305 322.853 94.0305C321.952 94.0305 321.214 93.7516 320.639 93.1939C320.065 92.6362 319.777 91.8939 319.777 90.9673C319.777 90.3802 319.894 89.8683 320.129 89.4311C320.363 88.9941 320.693 88.6449 321.118 88.384C321.544 88.1231 322.225 87.8916 323.161 87.6891C324.296 87.4478 325.087 87.2227 325.535 87.014C325.535 86.4374 325.49 86.059 325.401 85.879C325.313 85.6987 325.15 85.5515 324.912 85.4367C324.674 85.322 324.339 85.2647 323.906 85.2647C323.466 85.2647 323.12 85.356 322.869 85.5382C322.617 85.7208 322.413 86.0628 322.257 86.5644" fill="white"/>
<path d="M330.811 90.8349L333.269 90.4146C333.482 91.5028 334.142 92.0467 335.248 92.0467C335.837 92.0467 336.277 91.9425 336.568 91.7338C336.859 91.5254 337.005 91.2548 337.005 90.9223C337.005 90.6942 336.941 90.5149 336.813 90.3845C336.678 90.2541 336.411 90.1401 336.012 90.0428C333.999 89.5511 332.72 89.083 332.173 88.639C331.492 88.0838 331.152 87.3233 331.152 86.3567C331.152 85.3903 331.485 84.6164 332.152 84.0353C332.819 83.4541 333.787 83.1636 335.057 83.1636C336.27 83.1636 337.192 83.3803 337.824 83.8135C338.455 84.2467 338.899 84.9457 339.154 85.9096L336.845 86.3885C336.639 85.5547 336.057 85.1376 335.1 85.1376C334.497 85.1376 334.067 85.2176 333.812 85.3778C333.557 85.5377 333.429 85.7449 333.429 85.9994C333.429 86.2278 333.546 86.4174 333.78 86.5676C334.014 86.7242 334.74 86.9609 335.96 87.2774C337.329 87.6335 338.258 88.0626 338.748 88.5645C339.232 89.0666 339.473 89.7347 339.473 90.5691C339.473 91.573 339.099 92.4008 338.351 93.0526C337.602 93.7047 336.568 94.0305 335.248 94.0305C334.05 94.0305 333.071 93.7586 332.312 93.2145C331.552 92.6705 331.052 91.8774 330.811 90.8349Z" fill="white"/>
</svg>
